<svg width="24" height="24" viewBox="0 0 24 24" fill="none" xmlns="http://www.w3.org/2000/svg">
<mask id="mask0_1113_98" style="mask-type:alpha" maskUnits="userSpaceOnUse" x="0" y="0" width="24" height="24">
<rect width="24" height="24" fill="#D9D9D9"/>
</mask>
<g mask="url(#mask0_1113_98)">
<path d="M6.02308 17.2923C6.87308 16.6616 7.79903 16.1635 8.80095 15.7981C9.80287 15.4327 10.8692 15.25 12 15.25C13.1307 15.25 14.1971 15.4327 15.199 15.7981C16.2009 16.1635 17.1269 16.6616 17.9769 17.2923C18.5987 16.609 19.0913 15.818 19.4548 14.9193C19.8182 14.0205 20 13.0474 20 12C20 9.78333 19.2208 7.89583 17.6625 6.3375C16.1041 4.77917 14.2166 4 12 4C9.78331 4 7.89581 4.77917 6.33748 6.3375C4.77914 7.89583 3.99998 9.78333 3.99998 12C3.99998 13.0474 4.18171 14.0205 4.54518 14.9193C4.90864 15.818 5.40128 16.609 6.02308 17.2923ZM12.0003 12.75C11.0873 12.75 10.3173 12.4366 9.69038 11.8099C9.06346 11.1832 8.75 10.4133 8.75 9.5003C8.75 8.58729 9.06336 7.81732 9.69008 7.1904C10.3168 6.56348 11.0867 6.25003 11.9997 6.25003C12.9127 6.25003 13.6827 6.56338 14.3096 7.1901C14.9365 7.81683 15.25 8.5867 15.25 9.4997C15.25 10.4127 14.9366 11.1827 14.3099 11.8096C13.6831 12.4365 12.9133 12.75 12.0003 12.75ZM12 21.5C10.6807 21.5 9.44325 21.2519 8.2875 20.7557C7.13173 20.2596 6.12628 19.5839 5.27115 18.7288C4.41603 17.8737 3.7404 16.8682 3.24425 15.7125C2.74808 14.5567 2.5 13.3192 2.5 12C2.5 10.6808 2.74808 9.44328 3.24425 8.28753C3.7404 7.13176 4.41603 6.12631 5.27115 5.27118C6.12628 4.41606 7.13173 3.74043 8.2875 3.24428C9.44325 2.74811 10.6807 2.50002 12 2.50002C13.3192 2.50002 14.5567 2.74811 15.7125 3.24428C16.8682 3.74043 17.8737 4.41606 18.7288 5.27118C19.5839 6.12631 20.2596 7.13176 20.7557 8.28753C21.2519 9.44328 21.5 10.6808 21.5 12C21.5 13.3192 21.2519 14.5567 20.7557 15.7125C20.2596 16.8682 19.5839 17.8737 18.7288 18.7288C17.8737 19.5839 16.8682 20.2596 15.7125 20.7557C14.5567 21.2519 13.3192 21.5 12 21.5ZM12 20C12.9025 20 13.7727 19.8548 14.6105 19.5644C15.4484 19.274 16.1923 18.868 16.8423 18.3462C16.1923 17.8436 15.458 17.4519 14.6394 17.1712C13.8208 16.8904 12.941 16.75 12 16.75C11.0589 16.75 10.1775 16.8888 9.35573 17.1663C8.53393 17.4439 7.80123 17.8372 7.15765 18.3462C7.80765 18.868 8.55157 19.274 9.3894 19.5644C10.2272 19.8548 11.0974 20 12 20ZM12 11.25C12.4974 11.25 12.9134 11.0827 13.2481 10.7481C13.5827 10.4135 13.75 9.99743 13.75 9.5C13.75 9.00257 13.5827 8.58653 13.2481 8.2519C12.9134 7.91728 12.4974 7.74998 12 7.74998C11.5025 7.74998 11.0865 7.91728 10.7519 8.2519C10.4173 8.58653 10.25 9.00257 10.25 9.5C10.25 9.99743 10.4173 10.4135 10.7519 10.7481C11.0865 11.0827 11.5025 11.25 12 11.25Z" fill="#004364"/>
</g>
</svg>
