<svg width="24" height="24" viewBox="0 0 24 24" fill="none" xmlns="http://www.w3.org/2000/svg">
<mask id="mask0_8_1772" style="mask-type:alpha" maskUnits="userSpaceOnUse" x="0" y="0" width="24" height="24">
<rect width="24" height="24" fill="#D9D9D9"/>
</mask>
<g mask="url(#mask0_8_1772)">
<path d="M4.25003 18.8654V17.3654H6.25003V10.1154C6.25003 8.75771 6.66989 7.5574 7.50963 6.51446C8.34938 5.47151 9.42951 4.80261 10.75 4.50774V3.80774C10.75 3.45517 10.8702 3.1587 11.1106 2.91831C11.351 2.67793 11.6474 2.55774 12 2.55774C12.3526 2.55774 12.649 2.67793 12.8894 2.91831C13.1298 3.1587 13.25 3.45517 13.25 3.80774V4.50774C14.5705 4.80261 15.6506 5.47151 16.4904 6.51446C17.3301 7.5574 17.75 8.75771 17.75 10.1154V17.3654H19.75V18.8654H4.25003ZM12 21.8077C11.5077 21.8077 11.0833 21.6327 10.7269 21.2827C10.3705 20.9327 10.1923 20.5051 10.1923 20H13.8077C13.8077 20.5051 13.6327 20.9327 13.2827 21.2827C12.9327 21.6327 12.5051 21.8077 12 21.8077ZM7.74998 17.3654H16.25V10.1154C16.25 8.93848 15.8359 7.93591 15.0077 7.10769C14.1795 6.27949 13.1769 5.86539 12 5.86539C10.8231 5.86539 9.8205 6.27949 8.9923 7.10769C8.16408 7.93591 7.74998 8.93848 7.74998 10.1154V17.3654Z" fill="white"/>
</g>
</svg>
