<svg width="40" height="40" viewBox="0 0 40 40" fill="none" xmlns="http://www.w3.org/2000/svg">
<circle cx="20" cy="20" r="20" fill="#E0F6E9"/>
<mask id="mask0_1_2008" style="mask-type:alpha" maskUnits="userSpaceOnUse" x="8" y="8" width="24" height="24">
<rect x="8" y="8" width="24" height="24" fill="#D9D9D9"/>
</mask>
<g mask="url(#mask0_1_2008)">
<path d="M18.9621 23.7692C18.9621 22.6372 19.0925 21.7705 19.3533 21.1692C19.6142 20.5679 20.1588 19.9012 20.9871 19.1692C21.6319 18.5949 22.1207 18.074 22.4533 17.6067C22.786 17.1394 22.9523 16.6095 22.9523 16.0172C22.9523 15.2314 22.6848 14.5782 22.1496 14.0577C21.6143 13.5372 20.8773 13.2769 19.9388 13.2769C19.0825 13.2769 18.4158 13.5064 17.9388 13.9652C17.462 14.4242 17.0998 14.9364 16.8523 15.5019L15.0273 14.6999C15.4158 13.7423 16.0223 12.9439 16.8466 12.3047C17.6709 11.6657 18.7017 11.3462 19.9388 11.3462C21.5542 11.3462 22.7974 11.8016 23.6686 12.7124C24.5398 13.6233 24.9753 14.7044 24.9753 15.9557C24.9753 16.7377 24.8058 17.4278 24.4668 18.0259C24.1277 18.6239 23.6133 19.2467 22.9236 19.8942C22.0556 20.6904 21.5181 21.3182 21.3111 21.7777C21.1039 22.2374 21.0003 22.9012 21.0003 23.7692H18.9621ZM19.9388 29.4999C19.5298 29.4999 19.1776 29.3522 18.8821 29.0567C18.5866 28.7612 18.4388 28.4089 18.4388 27.9999C18.4388 27.5909 18.5866 27.2387 18.8821 26.9432C19.1776 26.6477 19.5298 26.4999 19.9388 26.4999C20.3478 26.4999 20.7001 26.6477 20.9956 26.9432C21.2911 27.2387 21.4388 27.5909 21.4388 27.9999C21.4388 28.4089 21.2911 28.7612 20.9956 29.0567C20.7001 29.3522 20.3478 29.4999 19.9388 29.4999Z" fill="#1D653B"/>
</g>
</svg>
