<svg width="40" height="40" viewBox="0 0 40 40" fill="none" xmlns="http://www.w3.org/2000/svg">
<circle cx="20" cy="20" r="20" fill="#FFF9D9"/>
<mask id="mask0_1_1998" style="mask-type:alpha" maskUnits="userSpaceOnUse" x="8" y="8" width="24" height="24">
<rect x="8" y="8" width="24" height="24" fill="#D9D9D9"/>
</mask>
<g mask="url(#mask0_1_1998)">
<path d="M14.5731 27.5384L15.5731 23.5384H11.7656L12.1406 22.0384H15.9481L16.9674 17.9614H13.1599L13.5349 16.4614H17.3424L18.3424 12.4614H19.8231L18.8231 16.4614H22.9579L23.9579 12.4614H25.4386L24.4386 16.4614H28.2461L27.8711 17.9614H24.0636L23.0444 22.0384H26.8519L26.4769 23.5384H22.6694L21.6694 27.5384H20.1886L21.1886 23.5384H17.0539L16.0539 27.5384H14.5731ZM17.4289 22.0384H21.5636L22.5829 17.9614H18.4481L17.4289 22.0384Z" fill="#6F4116"/>
</g>
</svg>
