<svg width="40" height="40" viewBox="0 0 40 40" fill="none" xmlns="http://www.w3.org/2000/svg">
<circle cx="20" cy="20" r="20" fill="#F2F2FC"/>
<mask id="mask0_1_2018" style="mask-type:alpha" maskUnits="userSpaceOnUse" x="8" y="8" width="24" height="24">
<rect x="8" y="8" width="24" height="24" fill="#D9D9D9"/>
</mask>
<g mask="url(#mask0_1_2018)">
<path d="M22.6923 26C22.0499 26 21.5048 25.776 21.0568 25.328C20.6088 24.8798 20.3848 24.3346 20.3848 23.6923C20.3848 23.0499 20.6088 22.5048 21.0568 22.0568C21.5048 21.6088 22.0499 21.3848 22.6923 21.3848C23.3346 21.3848 23.8798 21.6088 24.328 22.0568C24.776 22.5048 25 23.0499 25 23.6923C25 24.3346 24.776 24.8798 24.328 25.328C23.8798 25.776 23.3346 26 22.6923 26ZM13.3077 29.5C12.8026 29.5 12.375 29.325 12.025 28.975C11.675 28.625 11.5 28.1974 11.5 27.6923V14.3078C11.5 13.8026 11.675 13.375 12.025 13.025C12.375 12.675 12.8026 12.5 13.3077 12.5H14.6923V10.3848H16.2308V12.5H23.8077V10.3848H25.3077V12.5H26.6923C27.1974 12.5 27.625 12.675 27.975 13.025C28.325 13.375 28.5 13.8026 28.5 14.3078V27.6923C28.5 28.1974 28.325 28.625 27.975 28.975C27.625 29.325 27.1974 29.5 26.6923 29.5H13.3077ZM13.3077 28H26.6923C26.7692 28 26.8398 27.9679 26.9038 27.9038C26.9679 27.8398 27 27.7693 27 27.6923V18.3078H13V27.6923C13 27.7693 13.0321 27.8398 13.0963 27.9038C13.1603 27.9679 13.2307 28 13.3077 28ZM13 16.8078H27V14.3078C27 14.2308 26.9679 14.1603 26.9038 14.0963C26.8398 14.0321 26.7692 14 26.6923 14H13.3077C13.2307 14 13.1603 14.0321 13.0963 14.0963C13.0321 14.1603 13 14.2308 13 14.3078V16.8078Z" fill="#5F5BA9"/>
</g>
</svg>
