<svg width="186" height="17" viewBox="0 0 186 17" fill="none" xmlns="http://www.w3.org/2000/svg">
<g clip-path="url(#clip0_8_1727)">
<g opacity="0.99">
<path opacity="0.99" d="M40.1381 0.610512V16.3929H37.1276L29.2297 6.8085V16.3929H25.6131V0.610512H28.6563L36.5281 10.1916V0.610512H40.1381Z" fill="white"/>
<path opacity="0.99" d="M56.1591 13.4601V16.3821H43.8953V0.609535H55.3218V3.53159H47.5542V6.96017H54.4713V9.80105H47.5542V13.4536L56.1591 13.4601Z" fill="white"/>
<path opacity="0.99" d="M62.3594 3.58354H57.2895V0.609535H71.0947V3.58354H66.0245V16.3919H62.3594V3.58354Z" fill="white"/>
<path opacity="0.99" d="M86.8187 9.61593C87.345 10.3296 87.6158 11.1984 87.5877 12.0835C87.6145 12.7102 87.4792 13.3333 87.1938 13.8925C86.9083 14.4516 86.4827 14.9278 85.9588 15.275C84.8727 16.0174 83.3012 16.3897 81.2442 16.3919H73.0626V0.609535H80.788C82.7163 0.609535 84.1982 0.977494 85.2319 1.71342C85.7234 2.04268 86.1229 2.49035 86.3943 3.01485C86.6656 3.53934 86.7992 4.12362 86.7827 4.7134C86.8004 5.4292 86.6138 6.13524 86.2442 6.74961C85.8753 7.36391 85.3392 7.86135 84.6977 8.18417C85.5374 8.42866 86.2796 8.92937 86.8187 9.61593ZM76.7186 3.35952V7.08026H80.3611C81.0789 7.12598 81.7949 6.9612 82.42 6.60626C82.6486 6.45332 82.8328 6.24398 82.956 5.99869C83.0786 5.75342 83.1353 5.48061 83.1207 5.20691C83.1359 4.93498 83.0786 4.66388 82.956 4.42064C82.8328 4.17739 82.648 3.97049 82.42 3.82054C81.7924 3.4736 81.0777 3.31359 80.3611 3.35952H76.7186ZM83.1762 13.1679C83.4183 13.0105 83.6146 12.7916 83.7439 12.5336C83.8732 12.2757 83.9317 11.9881 83.9122 11.7004C83.9122 10.4017 82.9347 9.75235 80.9801 9.75235H76.7052V13.6484H80.9801C81.9443 13.6419 82.6743 13.4828 83.1627 13.1679H83.1762Z" fill="white"/>
<path opacity="0.99" d="M100.464 16.3918L97.4042 11.9957H94.0355V16.3918H90.3698V0.609491H97.2121C98.4666 0.580582 99.7131 0.818554 100.868 1.30754C101.857 1.71683 102.696 2.41832 103.273 3.31751C103.85 4.2167 104.136 5.27041 104.094 6.33669C104.135 7.40089 103.843 8.45155 103.26 9.34368C102.676 10.2358 101.829 10.9254 100.835 11.3172L104.387 16.3918H100.464ZM99.535 4.29453C98.9618 3.82051 98.1245 3.58349 97.0231 3.58349H94.0355V9.08668H97.0231C98.1245 9.08668 98.9618 8.84643 99.535 8.36594C99.8076 8.10074 100.023 7.78406 100.171 7.43452C100.319 7.08493 100.395 6.70947 100.395 6.33025C100.395 5.95097 100.319 5.57553 100.171 5.22596C100.023 4.87638 99.8076 4.55971 99.535 4.29453Z" fill="white"/>
<path opacity="0.99" d="M117.432 13.0088H110.079L108.675 16.3919H104.918L111.978 0.609535H115.598L122.681 16.3919H118.833L117.432 13.0088ZM116.279 10.2361L113.767 4.19392L111.255 10.2361H116.279Z" fill="white"/>
<path opacity="0.99" d="M138.747 16.3919L138.725 6.92119L134.063 14.7133H132.411L127.771 7.11596V16.3919H124.333V0.609535H127.38L133.31 10.4179L139.149 0.609535H142.156L142.202 16.3919H138.747Z" fill="white"/>
<path opacity="0.99" d="M160.467 0.609535V16.3919H156.802V9.92114H149.607V16.3919H145.951V0.609535H149.617V6.8303H156.802V0.609535H160.467Z" fill="white"/>
<path opacity="0.99" d="M174.653 13.0088H167.299L165.898 16.3919H162.141L169.201 0.609535H172.821L179.902 16.3919H176.057L174.653 13.0088ZM173.5 10.2361L170.987 4.19392L168.475 10.2361H173.5Z" fill="white"/>
<path d="M17.0754 0H0V17H17.0754V0Z" fill="#FFDD00"/>
<path d="M180.969 3.03572V0.332715H179.919V0.0607147H182.335V0.332715H181.285V3.03572H180.969Z" fill="white"/>
<path d="M182.84 3.03572V0.0607147H183.1L184.466 2.38122H184.33L185.683 0.0607147H185.943V3.03572H185.64V0.532464H185.713L184.466 2.65747H184.317L183.062 0.532464H183.143V3.03572H182.84Z" fill="white"/>
</g>
</g>
<defs>
<clipPath id="clip0_8_1727">
<rect width="186" height="17" fill="white"/>
</clipPath>
</defs>
</svg>
