<svg width="24" height="24" viewBox="0 0 24 24" fill="none" xmlns="http://www.w3.org/2000/svg">
<mask id="mask0_1113_83" style="mask-type:alpha" maskUnits="userSpaceOnUse" x="0" y="0" width="24" height="24">
<rect width="24" height="24" fill="#D9D9D9"/>
</mask>
<g mask="url(#mask0_1113_83)">
<path d="M11.989 17.6154C12.2745 17.6154 12.5157 17.5168 12.7125 17.3196C12.9093 17.1225 13.0077 16.8811 13.0077 16.5956C13.0077 16.3101 12.9091 16.0689 12.7119 15.8721C12.5148 15.6753 12.2734 15.5769 11.9879 15.5769C11.7024 15.5769 11.4612 15.6755 11.2644 15.8727C11.0676 16.0698 10.9692 16.3111 10.9692 16.5967C10.9692 16.8822 11.0678 17.1234 11.265 17.3202C11.4621 17.517 11.7034 17.6154 11.989 17.6154ZM11.2808 14.0346H12.6884C12.7012 13.5423 12.7734 13.149 12.9048 12.8548C13.0362 12.5606 13.3551 12.1705 13.8615 11.6846C14.3012 11.2449 14.6381 10.8388 14.8721 10.4664C15.106 10.0939 15.223 9.65409 15.223 9.14688C15.223 8.28616 14.9137 7.61381 14.2952 7.12982C13.6766 6.64586 12.9449 6.40387 12.1 6.40387C11.2654 6.40387 10.5747 6.62663 10.0279 7.07215C9.48109 7.51765 9.09103 8.04232 8.8577 8.64615L10.1423 9.16153C10.2641 8.82948 10.4724 8.50608 10.7673 8.19135C11.0622 7.8766 11.5 7.71923 12.0808 7.71923C12.6718 7.71923 13.1086 7.88109 13.3913 8.20482C13.674 8.52854 13.8154 8.88463 13.8154 9.2731C13.8154 9.61283 13.7186 9.92372 13.525 10.2058C13.3314 10.4878 13.0846 10.7603 12.7846 11.0231C12.1282 11.6154 11.7135 12.0878 11.5404 12.4404C11.3673 12.793 11.2808 13.3244 11.2808 14.0346ZM12.0016 21.5C10.6877 21.5 9.45268 21.2506 8.29655 20.752C7.1404 20.2533 6.13472 19.5766 5.2795 18.7217C4.42427 17.8669 3.74721 16.8616 3.24833 15.706C2.74944 14.5504 2.5 13.3156 2.5 12.0017C2.5 10.6877 2.74933 9.45271 3.248 8.29658C3.74667 7.14042 4.42342 6.13474 5.27825 5.27952C6.1331 4.42429 7.13834 3.74723 8.29398 3.24835C9.44959 2.74947 10.6844 2.50002 11.9983 2.50002C13.3122 2.50002 14.5473 2.74936 15.7034 3.24802C16.8596 3.74669 17.8652 4.42344 18.7205 5.27828C19.5757 6.13313 20.2527 7.13837 20.7516 8.294C21.2505 9.44962 21.5 10.6844 21.5 11.9983C21.5 13.3123 21.2506 14.5473 20.752 15.7034C20.2533 16.8596 19.5765 17.8653 18.7217 18.7205C17.8669 19.5757 16.8616 20.2528 15.706 20.7516C14.5504 21.2505 13.3156 21.5 12.0016 21.5ZM12 20C14.2333 20 16.125 19.225 17.675 17.675C19.225 16.125 20 14.2333 20 12C20 9.76667 19.225 7.875 17.675 6.325C16.125 4.775 14.2333 4 12 4C9.76664 4 7.87498 4.775 6.32498 6.325C4.77498 7.875 3.99998 9.76667 3.99998 12C3.99998 14.2333 4.77498 16.125 6.32498 17.675C7.87498 19.225 9.76664 20 12 20Z" fill="#004364"/>
</g>
</svg>
