<svg width="24" height="24" viewBox="0 0 24 24" fill="none" xmlns="http://www.w3.org/2000/svg">
<mask id="mask0_8_1769" style="mask-type:alpha" maskUnits="userSpaceOnUse" x="0" y="0" width="24" height="24">
<rect width="24" height="24" fill="#D9D9D9"/>
</mask>
<g mask="url(#mask0_8_1769)">
<path d="M8.25003 17.75H15.75V16.25H8.25003V17.75ZM8.25003 13.75H15.75V12.25H8.25003V13.75ZM6.30773 21.5C5.80259 21.5 5.37503 21.325 5.02503 20.975C4.67503 20.625 4.50003 20.1974 4.50003 19.6923V4.30773C4.50003 3.8026 4.67503 3.37503 5.02503 3.02503C5.37503 2.67503 5.80259 2.50003 6.30773 2.50003H14.25L19.5 7.74998V19.6923C19.5 20.1974 19.325 20.625 18.975 20.975C18.625 21.325 18.1974 21.5 17.6923 21.5H6.30773ZM13.5 8.49998V4.00001H6.30773C6.23079 4.00001 6.16027 4.03206 6.09615 4.09616C6.03205 4.16027 6 4.2308 6 4.30773V19.6923C6 19.7692 6.03205 19.8397 6.09615 19.9039C6.16027 19.968 6.23079 20 6.30773 20H17.6923C17.7692 20 17.8397 19.968 17.9039 19.9039C17.968 19.8397 18 19.7692 18 19.6923V8.49998H13.5Z" fill="white"/>
</g>
</svg>
