<svg width="24" height="24" viewBox="0 0 24 24" fill="none" xmlns="http://www.w3.org/2000/svg">
<mask id="mask0_8_1787" style="mask-type:alpha" maskUnits="userSpaceOnUse" x="0" y="0" width="24" height="24">
<rect width="24" height="24" fill="#D9D9D9"/>
</mask>
<g mask="url(#mask0_8_1787)">
<path d="M4 16.7884V18.6923C4 18.7692 4.03205 18.8397 4.09615 18.9038C4.16026 18.9679 4.23079 19 4.30772 19H19.6923C19.7692 19 19.8397 18.9679 19.9039 18.9038C19.968 18.8397 20 18.7692 20 18.6923V16.7884H4ZM4.30772 6.51926H7.07507C6.99174 6.36926 6.92956 6.21093 6.88852 6.04426C6.84749 5.8776 6.82697 5.7026 6.82697 5.51926C6.82697 4.82055 7.06896 4.2292 7.55292 3.74524C8.03689 3.26127 8.62823 3.01929 9.32695 3.01929C9.74616 3.01929 10.1339 3.12821 10.4903 3.34606C10.8466 3.56391 11.1576 3.83447 11.4231 4.15774L11.9808 4.90389L12.5385 4.15774C12.7936 3.82184 13.1025 3.54812 13.4651 3.33659C13.8277 3.12505 14.2182 3.01929 14.6366 3.01929C15.334 3.01929 15.9246 3.26127 16.4086 3.74524C16.8926 4.2292 17.1346 4.82055 17.1346 5.51926C17.1346 5.7026 17.1156 5.8776 17.0778 6.04426C17.04 6.21093 16.9762 6.36926 16.8865 6.51926H19.6923C20.1974 6.51926 20.625 6.69426 20.975 7.04426C21.325 7.39425 21.5 7.8218 21.5 8.32694V18.6923C21.5 19.1974 21.325 19.625 20.975 19.975C20.625 20.325 20.1974 20.5 19.6923 20.5H4.30772C3.80259 20.5 3.37502 20.325 3.02502 19.975C2.67502 19.625 2.50002 19.1974 2.50002 18.6923V8.32694C2.50002 7.8218 2.67502 7.39425 3.02502 7.04426C3.37502 6.69426 3.80259 6.51926 4.30772 6.51926ZM4 14.2115H20V8.32694C20 8.25 19.968 8.17949 19.9039 8.11539C19.8397 8.05127 19.7692 8.01921 19.6923 8.01921H14.2269L16.2692 10.8115L15.073 11.673L11.9808 7.47691L8.88847 11.673L7.69235 10.8115L9.7039 8.01921H4.30772C4.23079 8.01921 4.16026 8.05127 4.09615 8.11539C4.03205 8.17949 4 8.25 4 8.32694V14.2115ZM9.32695 6.51926C9.61028 6.51926 9.84778 6.42343 10.0394 6.23176C10.2311 6.0401 10.3269 5.8026 10.3269 5.51926C10.3269 5.23593 10.2311 4.99843 10.0394 4.80676C9.84778 4.6151 9.61028 4.51926 9.32695 4.51926C9.04361 4.51926 8.80612 4.6151 8.61445 4.80676C8.42278 4.99843 8.32695 5.23593 8.32695 5.51926C8.32695 5.8026 8.42278 6.0401 8.61445 6.23176C8.80612 6.42343 9.04361 6.51926 9.32695 6.51926ZM14.6346 6.51926C14.9179 6.51926 15.1554 6.42343 15.3471 6.23176C15.5388 6.0401 15.6346 5.8026 15.6346 5.51926C15.6346 5.23593 15.5388 4.99843 15.3471 4.80676C15.1554 4.6151 14.9179 4.51926 14.6346 4.51926C14.3513 4.51926 14.1138 4.6151 13.9221 4.80676C13.7304 4.99843 13.6346 5.23593 13.6346 5.51926C13.6346 5.8026 13.7304 6.0401 13.9221 6.23176C14.1138 6.42343 14.3513 6.51926 14.6346 6.51926Z" fill="white"/>
</g>
</svg>
