<svg width="183" height="117" viewBox="0 0 183 117" fill="none" xmlns="http://www.w3.org/2000/svg">
<path d="M158.904 85.3555C159.634 85.3555 160.226 84.7642 160.212 84.035C160.029 74.1234 157.776 64.3593 153.599 55.3689C153.292 54.7075 152.5 54.4355 151.844 54.755L148.875 56.2024C148.219 56.5219 147.948 57.3119 148.254 57.9738C152.037 66.1522 154.084 75.026 154.267 84.035C154.281 84.7641 154.871 85.3555 155.6 85.3555L158.904 85.3555Z" fill="#008A00"/>
<path d="M150.904 52.8952C151.55 52.5562 151.8 51.7573 151.449 51.118C147.756 44.3886 142.998 38.3009 137.361 33.0911C136.825 32.5961 135.99 32.6454 135.505 33.1901L133.308 35.6576C132.823 36.2023 132.872 37.036 133.407 37.5319C138.511 42.265 142.825 47.7847 146.184 53.8814C146.536 54.5202 147.333 54.7696 147.979 54.4307L150.904 52.8952Z" fill="#8CCF54"/>
<path d="M136.054 29.2838C136.554 28.7379 136.508 27.888 135.944 27.4097C130.39 22.7046 123.295 18.0172 116.584 15.2357C115.908 14.9551 115.141 15.303 114.885 15.9894L111.125 26.0446C110.871 26.7245 111.214 27.4807 111.887 27.7526C117.745 30.1196 122.357 32.98 127.176 37.0719C127.724 37.5371 128.544 37.4935 129.029 36.9632L136.054 29.2838Z" fill="#FCD800"/>
<path d="M111.85 19.3315C112.088 18.6421 111.723 17.8891 111.029 17.664C104.164 15.4357 96.999 14.2648 89.7814 14.1915C89.0522 14.1841 88.4659 14.7816 88.472 15.5108L88.4998 18.8145C88.5059 19.5438 89.1021 20.1286 89.8313 20.1372C96.372 20.2147 102.864 21.2756 109.089 23.2844C109.783 23.5084 110.534 23.1438 110.772 22.4544L111.85 19.3315Z" fill="#FF871F"/>
<path d="M19.2111 85.3552C18.4818 85.3552 17.8894 84.7635 17.9029 84.0344C18.2372 66.0036 25.4072 48.7521 37.9903 35.7879C50.5734 22.8237 67.6034 15.1424 85.6161 14.2705C86.3445 14.2352 86.9536 14.8098 86.9753 15.5387L87.0739 18.8411C87.0956 19.57 86.5219 20.1772 85.7936 20.2137C69.3262 21.0387 53.7625 28.0735 42.2561 39.9284C30.7497 51.7832 24.1823 67.5498 23.8488 84.0345C23.834 84.7636 23.2442 85.3552 22.5149 85.3552L19.2111 85.3552Z" fill="#E15825"/>
<path d="M90.4559 27.1209C129.204 27.121 149.269 61.7839 148.567 82.9246C148.534 83.9355 147.682 84.7019 146.671 84.7019L32.1464 84.7019C31.0646 84.7019 30.1837 83.8256 30.2313 82.7449C31.1642 61.5881 47.1056 27.1208 90.4559 27.1209ZM89.4325 63.4294C77.6863 63.4294 68.1641 72.9518 68.164 84.698L110.701 84.698C110.701 72.9518 101.179 63.4295 89.4325 63.4294Z" fill="#99DBEA"/>
<path d="M101.818 84.9101L77.0391 84.9101C77.0391 80.5189 80.2976 72.6823 89.666 72.6823C98.016 72.6823 102.225 80.5189 101.818 84.9101Z" fill="#FCD800"/>
<path d="M116.855 37.1483L87.8127 76.9489C86.9006 78.2018 87.2356 79.9562 88.5505 80.813C89.8655 81.6697 91.6336 81.2855 92.4446 79.9668L118.779 38.4018C119.098 37.8831 118.941 37.2063 118.424 36.8693C117.907 36.5322 117.214 36.6555 116.855 37.1483Z" fill="#2C2C2C"/>
<path opacity="0.2" d="M86.6211 103.49C99.4567 103.49 110.757 104.059 117.341 104.92C119.527 104.455 124.812 104.125 130.983 104.125C139.111 104.125 145.7 104.695 145.7 105.398C145.698 106.1 139.11 106.669 130.983 106.669C128.189 106.669 125.576 106.6 123.351 106.483C123.392 106.545 123.415 106.606 123.415 106.669C123.415 106.686 123.41 106.701 123.407 106.717C129.622 106.866 134.185 107.357 134.185 107.942C134.182 108.644 127.594 109.213 119.468 109.213C116.538 109.213 113.807 109.138 111.514 109.01C104.962 109.531 96.2209 109.849 86.6211 109.849C71.4234 109.849 58.3781 109.052 52.7666 107.915C51.8168 107.932 50.8338 107.942 49.8271 107.942C41.699 107.942 35.1094 107.372 35.1094 106.669C35.111 105.967 41.7 105.398 49.8271 105.398C50.8338 105.398 51.8168 105.406 52.7666 105.422C58.3782 104.286 71.4236 103.49 86.6211 103.49Z" fill="#004364"/>
<ellipse opacity="0.2" cx="90.9173" cy="100.85" rx="33.1985" ry="2.83204" fill="#004364"/>
<rect width="42.9058" height="27.2468" rx="1.0757" transform="matrix(-0.98333 0.181831 0.181829 0.98333 140.328 67.2933)" fill="#47447C"/>
<rect width="7.48787" height="4.42426" rx="0.537848" transform="matrix(-0.98333 0.181831 0.181829 0.98333 139.516 79.2122)" fill="#FFEDA0"/>
<rect width="42.9058" height="27.2467" rx="1.0757" transform="matrix(-0.91175 0.410746 0.410743 0.911751 136.68 60.8774)" fill="#7E79D0"/>
<path d="M142.289 80.8032L134.531 84.2982" stroke="#004364" stroke-width="1.0757"/>
<path d="M132.047 85.4153L119.324 91.1469" stroke="#004364" stroke-width="1.0757"/>
<rect width="7.48787" height="4.42426" rx="0.537848" transform="matrix(-0.91175 0.410746 0.410743 0.911751 138.727 72.6476)" fill="#FFEDA0"/>
<ellipse cx="2.73718" cy="2.73719" rx="2.73718" ry="2.73719" transform="matrix(-0.926712 -0.375773 0.375771 -0.926713 115.367 93.8993)" fill="#FFF9D9"/>
<ellipse cx="1.24586" cy="1.24586" rx="1.24586" ry="1.24586" transform="matrix(-0.926712 -0.375773 0.375771 -0.926713 109.234 93.2596)" fill="#FFF9D9"/>
<rect width="60.8678" height="50.949" rx="1.52798" transform="matrix(-1 0 0 1 114.711 55.2631)" fill="#F8D0D8"/>
<rect width="63.8743" height="53.4657" rx="1.52798" transform="matrix(-1 0 0 1 116.211 49.8774)" fill="white"/>
<path d="M116.211 51.4054C116.211 50.5615 115.527 49.8774 114.683 49.8774H53.8643C53.0205 49.8774 52.3363 50.5615 52.3363 51.4054V62.1998H116.211V51.4054Z" fill="#FF7171"/>
<rect width="15.0432" height="13.6759" rx="1.52798" transform="matrix(-1 0 0 1 110.672 65.8037)" fill="#F8D0D8"/>
<rect width="15.0432" height="13.6759" rx="1.52798" transform="matrix(-1 0 0 1 91.7966 65.8036)" fill="#F8D0D8"/>
<rect width="15.0432" height="13.6759" rx="1.52798" transform="matrix(-1 0 0 1 91.7966 83.0831)" fill="#F8D0D8"/>
<rect width="15.0432" height="13.6759" rx="1.52798" transform="matrix(-1 0 0 1 72.9216 65.8037)" fill="#F8D0D8"/>
<rect width="15.0432" height="13.6759" rx="1.52798" transform="matrix(-1 0 0 1 72.9216 83.0831)" fill="#F8D0D8"/>
<rect width="15.0432" height="13.6759" rx="1.52798" transform="matrix(-1 0 0 1 110.672 83.0831)" fill="#F8D0D8"/>
<path d="M103.148 46.8573L103.148 54.5833" stroke="#004364" stroke-width="4.07463" stroke-linecap="round"/>
<path d="M65.3982 46.8573L65.3982 54.5833" stroke="#004364" stroke-width="4.07463" stroke-linecap="round"/>
<rect width="24.8632" height="4.87276" rx="0.88425" transform="matrix(-1 0 0 1 132.188 102.963)" fill="#FBD801"/>
<path d="M130.711 103.354H108.802" stroke="#B28B67" stroke-width="0.88425" stroke-linecap="round"/>
<rect width="24.8632" height="4.87276" rx="0.88425" transform="matrix(-1 0 0 1 130.711 98.0891)" fill="#FBD801"/>
<path d="M129.234 98.4816H107.326" stroke="#B28B67" stroke-width="0.88425" stroke-linecap="round"/>
<rect width="24.8632" height="4.87276" rx="0.88425" transform="matrix(-1 0 0 1 128.008 93.2157)" fill="#FBD801"/>
<path d="M126.531 93.6074H104.623" stroke="#B28B67" stroke-width="0.88425" stroke-linecap="round"/>
<rect width="24.8632" height="4.87276" rx="0.88425" transform="matrix(-1 0 0 1 130.711 88.3433)" fill="#FBD801"/>
<path d="M129.234 88.7357H107.326" stroke="#B28B67" stroke-width="0.88425" stroke-linecap="round"/>
<path d="M79.0599 49.7163C79.0595 48.1711 78.4453 46.6893 77.3524 45.5969C76.2595 44.5046 74.7775 43.8912 73.2323 43.8916C71.6871 43.892 70.2054 44.5063 69.1131 45.5992C68.0208 46.6921 67.4074 48.1742 67.4078 49.7194L73.2339 49.7179L79.0599 49.7163Z" fill="#47447C"/>
<path opacity="0.2" d="M52.3359 49.7677L69.7943 49.7677L69.7943 94.5341C69.7943 96.795 67.9615 98.6279 65.7006 98.6279L52.3359 98.6279L52.3359 49.7677Z" fill="#004364"/>
<path d="M73.2885 43.9665C71.3222 44.1718 70.2464 44.6635 69.1708 45.8505C68.095 47.0378 67.7611 47.4884 67.465 50.2718L67.4757 93.0677L67.4623 90.6019C67.4637 93.1057 67.2851 96.4482 64.2744 96.4495L64.3858 96.4504L38.1241 96.4576L38.1112 49.4615C38.1851 48.0289 38.2965 47.4146 39.4091 46.1047C40.522 44.7946 40.8932 44.4256 42.3773 43.975L73.2885 43.9665Z" fill="#B2AFEB"/>
<path d="M63.5938 49.7581L42.1679 49.7639" stroke="#F2F2FC" stroke-width="1.21589" stroke-linecap="round"/>
<path d="M63.5938 53.7345L42.1679 53.7403" stroke="#F2F2FC" stroke-width="1.21589" stroke-linecap="round"/>
<path d="M63.5938 57.7136L42.1679 57.7195" stroke="#F2F2FC" stroke-width="1.21589" stroke-linecap="round"/>
<path d="M63.5938 61.7808L42.1679 61.7866" stroke="#F2F2FC" stroke-width="1.21589" stroke-linecap="round"/>
<path d="M63.6016 66.1187L52.8873 66.1216" stroke="#F2F2FC" stroke-width="1.21589" stroke-linecap="round"/>
<path d="M62.5658 91.0529C62.5658 94.4283 62.7375 96.1451 64.3999 96.4481L36.2353 96.4558C34.3995 96.4563 33.9639 93.3211 33.9633 91.0529L62.5658 91.0529Z" fill="#47447C"/>
<path d="M38.0817 86.9506C32.371 86.9506 27.7415 82.3212 27.7415 76.6104C27.7415 70.8997 32.371 66.2703 38.0817 66.2703C43.7924 66.2703 48.4219 70.8997 48.4219 76.6104C48.4219 82.3212 43.7924 86.9506 38.0817 86.9506Z" fill="#00B14F"/>
<path d="M33.3125 77.6187L35.9724 80.2791" stroke="#FBE8EC" stroke-width="1.5127" stroke-linecap="round"/>
<path d="M43.4141 72.9412L36.0778 80.278" stroke="#FBE8EC" stroke-width="1.5127" stroke-linecap="round"/>
</svg>
