<svg width="24" height="24" viewBox="0 0 24 24" fill="none" xmlns="http://www.w3.org/2000/svg">
<mask id="mask0_8_1778" style="mask-type:alpha" maskUnits="userSpaceOnUse" x="0" y="0" width="24" height="24">
<rect width="24" height="24" fill="#D9D9D9"/>
</mask>
<g mask="url(#mask0_8_1778)">
<path d="M10.6039 15.3461C10.9591 15.7012 11.4164 15.8698 11.976 15.8519C12.5357 15.8339 12.9462 15.632 13.2078 15.2461L18.6347 7.38462L10.7539 12.7923C10.3616 13.0538 10.1498 13.4561 10.1184 13.999C10.087 14.542 10.2488 14.991 10.6039 15.3461ZM12.0001 4.5C12.9514 4.5 13.8427 4.62468 14.6741 4.87405C15.5055 5.1234 16.3084 5.50064 17.0828 6.00577L15.6732 6.9173C15.104 6.61473 14.5139 6.3862 13.903 6.2317C13.2921 6.07722 12.6578 5.99997 12.0001 5.99997C9.78343 5.99997 7.89593 6.77914 6.3376 8.33747C4.77926 9.89581 4.0001 11.7833 4.0001 14C4.0001 14.7 4.09593 15.3916 4.2876 16.075C4.47926 16.7583 4.7501 17.4 5.1001 18H18.9001C19.2834 17.3666 19.5626 16.7083 19.7376 16.025C19.9126 15.3416 20.0001 14.6333 20.0001 13.9C20.0001 13.3 19.9261 12.6926 19.778 12.0778C19.6299 11.4631 19.4014 10.8794 19.0924 10.3269L20.0039 8.9173C20.4975 9.72628 20.8677 10.5356 21.1145 11.3452C21.3613 12.1548 21.4898 12.9961 21.5001 13.8692C21.5103 14.7743 21.4084 15.6298 21.1943 16.4355C20.9802 17.2413 20.6578 18.0295 20.227 18.8C20.0949 19.0166 19.9091 19.1875 19.6693 19.3125C19.4296 19.4375 19.1732 19.5 18.9001 19.5H5.1001C4.83343 19.5 4.58183 19.4358 4.3453 19.3076C4.10876 19.1794 3.91806 18.9974 3.7732 18.7615C3.39115 18.0948 3.08346 17.3679 2.85012 16.5808C2.61679 15.7936 2.50012 14.9333 2.50012 14C2.50012 12.6936 2.74795 11.4655 3.2436 10.3157C3.73925 9.16592 4.41585 8.15887 5.2734 7.29455C6.13095 6.43023 7.13921 5.7484 8.2982 5.24905C9.45716 4.74968 10.6911 4.5 12.0001 4.5Z" fill="white"/>
</g>
</svg>
